<?xml version="1.0" standalone="no"?>
<!DOCTYPE svg PUBLIC "-//W3C//DTD SVG 20010904//EN"
 "http://www.w3.org/TR/2001/REC-SVG-20010904/DTD/svg10.dtd">
<svg version="1.0" xmlns="http://www.w3.org/2000/svg"
 width="720.000000pt" height="720.000000pt" viewBox="0 0 720.000000 720.000000"
 preserveAspectRatio="xMidYMid meet">
<metadata>
Created by potrace 1.11, written by Peter Selinger 2001-2013
</metadata>
<g transform="translate(0.000000,720.000000) scale(0.100000,-0.100000)"
fill="#000000" stroke="none">
<path d="M3398 5095 c-3 -3 -42 -12 -87 -20 -197 -34 -467 -155 -614 -274
-114 -92 -194 -173 -290 -290 -76 -93 -181 -294 -226 -431 -53 -164 -71 -283
-71 -480 0 -201 18 -318 75 -488 155 -458 538 -827 990 -954 163 -46 254 -58
434 -58 197 0 290 14 476 69 146 44 380 174 493 276 32 29 56 44 64 39 7 -4
10 -4 6 1 -4 4 25 44 65 89 78 87 135 162 185 241 31 51 132 257 132 271 0 4
11 44 24 88 47 158 58 254 53 461 -3 115 -11 221 -21 269 -109 541 -520 988
-1051 1141 -152 44 -241 55 -442 55 -104 0 -192 -2 -195 -5z"/>
</g>
</svg>
